<svg width="38" height="38" viewBox="0 0 38 38" fill="none" xmlns="http://www.w3.org/2000/svg">
<path d="M28.796 0.869995H8.33399C3.73126 0.869995 0 4.60125 0 9.20399V29.666C0 34.2687 3.73126 38 8.33399 38H28.796C33.3987 38 37.13 34.2687 37.13 29.666V9.20399C37.13 4.60125 33.3987 0.869995 28.796 0.869995Z" fill="url(#paint0_linear_3_43)"/>
<path d="M12.8611 7.30054H24.4361C24.6933 7.42915 25.0792 7.42915 25.3364 7.55776C26.4651 7.74069 27.5205 8.23479 28.3838 8.98454C29.2472 9.73429 29.8843 10.71 30.2236 11.8019C30.4135 12.4312 30.5427 13.0772 30.6094 13.7311V25.0489C30.4256 26.4832 29.8959 27.8515 29.0661 29.0358C28.3542 29.8606 27.4617 30.5102 26.4579 30.934C25.4542 31.3578 24.3662 31.5444 23.2786 31.4794H13.6328C11.9114 31.563 10.2189 31.014 8.87418 29.9361C8.05647 29.2296 7.41118 28.3454 6.98764 27.3512C6.56411 26.357 6.37356 25.2792 6.43057 24.2V15.1973C6.40932 14.5515 6.4524 13.9053 6.55918 13.2681C6.68905 11.9496 7.23119 10.7055 8.10854 9.71269C8.9859 8.71989 10.1538 8.02886 11.4464 7.73781L12.8611 7.30054ZM8.87418 19.5186V24.5344C8.81934 25.1731 8.90479 25.8161 9.12454 26.4184C9.34429 27.0206 9.69304 27.5675 10.1463 28.0208C10.5997 28.4742 11.1466 28.8229 11.7488 29.0427C12.3511 29.2624 12.9941 29.3479 13.6328 29.293C16.9767 29.4216 20.3206 29.4216 23.6644 29.293C26.6225 29.293 28.2944 27.4925 28.4231 24.5344C28.5517 21.1905 28.5517 17.8466 28.4231 14.5028C28.4564 13.8691 28.3561 13.2355 28.1288 12.643C27.9014 12.0506 27.552 11.5126 27.1033 11.0639C26.6546 10.6152 26.1166 10.2658 25.5242 10.0384C24.9317 9.81109 24.2981 9.71082 23.6644 9.74415C20.3206 9.61554 16.9767 9.61554 13.6328 9.74415C12.9941 9.68931 12.3511 9.77476 11.7488 9.99451C11.1466 10.2143 10.5997 10.563 10.1463 11.0163C9.69304 11.4696 9.34429 12.0166 9.12454 12.6188C8.90479 13.221 8.81934 13.864 8.87418 14.5028V19.5186Z" fill="white"/>
<path d="M12.3981 19.5701C12.4015 17.8997 13.0666 16.2988 14.2477 15.1177C15.4288 13.9366 17.0297 13.2715 18.7001 13.2681C20.3611 13.301 21.945 13.9755 23.1198 15.1503C24.2946 16.3251 24.9691 17.909 25.002 19.5701C24.9986 21.2404 24.3336 22.8413 23.1524 24.0225C21.9713 25.2036 20.3704 25.8686 18.7001 25.872C17.039 25.8391 15.4551 25.1646 14.2803 23.9898C13.1055 22.815 12.431 21.2311 12.3981 19.5701ZM18.7001 15.5831C17.9189 15.5704 17.1517 15.7913 16.4969 16.2174C15.8421 16.6434 15.3294 17.2554 15.0246 17.9747C14.7197 18.694 14.6366 19.488 14.7859 20.2549C14.9352 21.0217 15.3101 21.7265 15.8625 22.279C16.415 22.8314 17.1198 23.2063 17.8866 23.3556C18.6535 23.5049 19.4475 23.4218 20.1668 23.117C20.8861 22.8121 21.4981 22.2994 21.9242 21.6446C22.3502 20.9898 22.5711 20.2226 22.5584 19.4415C22.5584 18.4182 22.1519 17.4368 21.4283 16.7132C20.7047 15.9896 19.7233 15.5831 18.7001 15.5831Z" fill="white"/>
<path d="M23.5873 13.0109C23.5801 12.8063 23.6151 12.6024 23.6901 12.4119C23.7651 12.2214 23.8785 12.0484 24.0233 11.9036C24.1681 11.7588 24.3411 11.6454 24.5316 11.5704C24.7221 11.4954 24.926 11.4604 25.1306 11.4676C25.531 11.4946 25.908 11.6659 26.1918 11.9497C26.4755 12.2335 26.6468 12.6105 26.6739 13.0109C26.6739 13.4202 26.5113 13.8128 26.2219 14.1022C25.9325 14.3916 25.5399 14.5542 25.1306 14.5542C24.7213 14.5542 24.3287 14.3916 24.0393 14.1022C23.7499 13.8128 23.5873 13.4202 23.5873 13.0109Z" fill="white"/>
<defs>
<linearGradient id="paint0_linear_3_43" x1="-2.36644" y1="40.0578" x2="41.3613" y2="-3.02692" gradientUnits="userSpaceOnUse">
<stop stop-color="#FED576"/>
<stop offset="0.26" stop-color="#F47133"/>
<stop offset="0.61" stop-color="#BC3081"/>
<stop offset="1" stop-color="#4C63D2"/>
</linearGradient>
</defs>
</svg>
