<svg width="38" height="38" viewBox="0 0 38 38" fill="none" xmlns="http://www.w3.org/2000/svg">
<path d="M34.382 0.954942C28.8298 0.939362 8.35126 0.965582 3.61798 0.954942C2.1451 0.954942 0.949997 2.11356 0.949997 3.54046V34.4652C0.949997 35.8925 2.1451 37.05 3.61798 37.05H34.382C35.8557 37.05 37.05 35.8925 37.05 34.4649V3.54046C37.05 2.11356 35.8557 0.954942 34.382 0.954942Z" fill="#0077B5"/>
<path d="M20.3121 31.1619C20.3121 31.1619 20.3121 22.0883 20.3121 22.0879C20.2593 20.4204 21.2561 18.8643 23.2617 18.7944C25.216 18.7944 25.9981 20.2844 25.9981 22.469V31.1615H31.3994V21.8443C31.3994 16.853 28.7348 14.5304 25.1807 14.5304C22.2669 14.5304 20.987 16.1587 20.276 17.268L20.3121 14.912H14.9108C14.9811 16.4365 14.9104 31.1619 14.9104 31.1619H20.3121ZM11.9206 24.1152V14.9116H6.51852V31.1615H11.921C11.9198 29.4553 11.9229 25.7974 11.9206 24.1152ZM9.2207 12.6935C11.104 12.6935 12.2767 11.4456 12.2767 9.88646C12.2611 6.1256 6.19514 6.1674 6.20008 9.88608C6.1959 11.4574 7.40088 12.7129 9.2207 12.6935Z" fill="#F1F1F1"/>
</svg>
