<svg width="45" height="45" viewBox="0 0 45 45" fill="none" xmlns="http://www.w3.org/2000/svg">
<path d="M22.5 45C34.9239 45 45 34.9239 45 22.5C45 10.0761 34.9239 -3.8147e-06 22.5 -3.8147e-06C10.0761 -3.8147e-06 3.8147e-06 10.0761 3.8147e-06 22.5C3.8147e-06 34.9239 10.0761 45 22.5 45ZM20.6902 4.01086C20.788 4.01086 20.8859 4.01086 21.0326 3.96195V14.5761C18.4891 14.625 16.1902 14.6739 14.087 14.8207C15.9457 9.09782 19.4185 5.2826 20.6902 4.01086ZM24.3098 4.01086C25.6304 5.33152 29.0543 9.14674 30.913 14.8207C28.8587 14.6739 26.5109 14.5761 23.9674 14.5761V3.96195C24.0652 3.96195 24.163 4.01086 24.3098 4.01086ZM41.087 22.5C41.087 23.7228 40.9402 24.9457 40.7446 26.1196C39.6685 26.3152 37.6141 26.6087 34.7283 26.9022C34.9728 25.4837 35.1196 24.0163 35.1196 22.4511C35.1196 20.8859 34.9728 19.4185 34.7772 18.0489C37.6141 18.3424 39.7174 18.6359 40.7935 18.8315C40.9402 20.0543 41.087 21.2772 41.087 22.5ZM32.1359 22.5C32.1359 24.163 31.9402 25.7283 31.6467 27.1957C29.3967 27.3424 26.8533 27.4891 23.9674 27.4891V17.5109C26.8043 17.5598 29.3967 17.6576 31.6957 17.8533C31.9402 19.2717 32.1359 20.837 32.1359 22.5ZM20.7391 40.9891C19.4185 39.6685 16.0435 35.7554 14.1359 30.1793C16.1902 30.3261 18.4891 30.4239 21.0326 30.4239V41.038C20.9348 41.038 20.837 40.9891 20.7391 40.9891ZM23.9674 41.038V30.4239C26.5109 30.375 28.8098 30.3261 30.8641 30.1793C29.0054 35.7554 25.5815 39.6685 24.3098 40.9891C24.163 40.9891 24.0652 41.038 23.9674 41.038ZM21.0326 17.5109V27.4891C18.1957 27.4402 15.6033 27.3424 13.3533 27.1957C13.0598 25.7283 12.8641 24.163 12.8641 22.5C12.8641 20.837 13.0109 19.2717 13.3043 17.8043C15.5543 17.6576 18.1467 17.5598 21.0326 17.5109ZM10.3207 26.9022C7.43478 26.6087 5.38044 26.3152 4.30435 26.1196C4.05979 24.9457 3.91304 23.7228 3.91304 22.5C3.91304 21.2772 4.05978 20.0543 4.25544 18.8804C5.33152 18.6848 7.38587 18.3913 10.2717 18.0978C10.0272 19.5163 9.92935 20.9837 9.92935 22.5489C9.92935 24.0163 10.0761 25.5326 10.3207 26.9022ZM5.18478 29.25C6.55435 29.4457 8.51087 29.6902 11.0054 29.9348C12.1793 34.1413 14.2337 37.5163 15.9457 39.913C11.0054 38.0543 7.09239 34.1413 5.18478 29.25ZM29.0543 39.913C30.8152 37.5652 32.8207 34.1902 33.9946 29.9837C36.4402 29.788 38.3967 29.4946 39.8152 29.2989C37.9076 34.1413 33.9457 38.0543 29.0543 39.913ZM39.8152 15.75C38.4457 15.5543 36.4891 15.3098 34.0435 15.0652C32.8696 10.8587 30.913 7.48369 29.1522 5.13587C34.0435 7.04348 37.9076 10.9076 39.8152 15.75ZM15.8478 5.13587C14.087 7.48369 12.1304 10.8098 10.9565 15.0163C8.51087 15.212 6.55435 15.5054 5.18478 15.7011C7.09239 10.9076 10.9565 7.04348 15.8478 5.13587Z" fill="#EBEBEB"/>
</svg>
